<svg width="16" height="16" viewBox="0 0 16 16" fill="none" xmlns="http://www.w3.org/2000/svg">
<g clip-path="url(#clip0_93_1082)">
<path d="M6.8285 12.2694C6.8285 12.2694 6.97877 13.3273 6.81768 13.4319C6.6602 13.5328 6.1517 13.4631 5.88122 13.5112C5.68888 13.5449 5.55424 13.7588 5.56506 13.9849C5.57588 14.2109 5.8127 14.3912 6.06154 14.3912C6.31038 14.3912 6.81768 14.3816 7.03166 14.3575C7.3358 14.3239 7.53055 14.1327 7.58464 13.9969C7.69764 13.7144 7.6183 12.1913 7.6183 12.1913L6.8285 12.2694Z" fill="#FC9301"/>
<path d="M8.81425 12.3488L9.61487 12.2586C9.61487 12.2586 9.63771 13.3754 9.64853 13.6122C9.65935 13.849 9.71585 14.5378 9.63771 14.7182C9.54996 14.9189 9.10757 15.294 8.60027 15.3613C8.09297 15.4286 7.52797 15.4623 7.50633 15.0115C7.4847 14.5607 7.83331 14.5715 7.96916 14.5378C8.105 14.5042 8.65798 14.402 8.79262 14.2674C8.92725 14.1303 8.81425 12.3488 8.81425 12.3488Z" fill="#FC9301"/>
<path d="M2.56934 5.79352C2.56934 5.79352 2.69075 4.75007 2.78933 4.38342C2.98167 3.66695 3.78229 2.21718 6.10601 2.12101C9.18346 1.99358 9.8795 4.79455 9.8795 4.79455C9.8795 4.79455 11.2499 5.18404 12.6216 5.64085C13.9932 6.09766 15.2278 6.72397 15.2951 6.92713C15.3624 7.13029 14.9032 10.0419 12.3679 11.5986C9.91436 13.1049 4.90508 13.0712 3.51662 10.1945C2.84943 8.81087 2.95522 7.96217 2.82299 7.08101C2.6631 6.01351 2.56934 5.79352 2.56934 5.79352Z" fill="#FFB903"/>
<path d="M1.05198 5.75986C1.07843 6.13132 2.74459 6.59534 2.74459 6.59534C2.74459 6.59534 3.02709 6.4595 3.02709 5.75986C3.02709 5.06022 2.74459 4.86908 2.74459 4.86908C2.74459 4.86908 1.02914 5.4437 1.05198 5.75986Z" fill="#FA9100"/>
<path d="M5.29535 5.44608C5.4087 5.11086 5.25075 4.75464 4.94258 4.65044C4.6344 4.54624 4.29269 4.73352 4.17935 5.06874C4.066 5.40396 4.22395 5.76018 4.53212 5.86438C4.8403 5.96858 5.18201 5.7813 5.29535 5.44608Z" fill="#2F302B"/>
<path d="M6.73845 9.41434C6.41027 9.74252 7.20127 10.3508 8.19423 10.7679C9.18719 11.1851 10.3497 11.0504 11.2404 10.6441C12.0903 10.257 12.8874 8.98518 12.7527 8.38772C12.6181 7.79026 12.0988 7.62076 11.3871 7.45126C10.6766 7.28176 9.60433 7.0221 9.36751 6.98844C9.13069 6.95478 8.96119 6.97762 8.91671 7.1916C8.88425 7.34788 9.04053 7.49574 9.43603 7.60874C9.83033 7.72174 11.8391 8.2062 11.8391 8.6017C11.8391 8.996 11.4328 9.7305 10.5865 10.0911C9.76542 10.441 8.96239 10.4854 8.14975 10.102C7.64846 9.86514 7.23613 9.52614 7.13395 9.45882C7.03177 9.3927 6.89713 9.25686 6.73845 9.41434Z" fill="#FC9301"/>
</g>
<defs>
<clipPath id="clip0_93_1082">
<rect width="15.3873" height="15.3873" fill="white" transform="translate(0.495605 0.621948)"/>
</clipPath>
</defs>
</svg>
